<svg xmlns="http://www.w3.org/2000/svg" xmlns:xlink="http://www.w3.org/1999/xlink" width="400" height="125" viewBox="0 0 400 400"><defs><linearGradient id="gradient-14" x1="0%" y1="0%" x2="100%" y2="0%" gradientTransform="rotate(109.6, 0.5, 0.5)">       <stop offset="11.2%" stop-color="rgba(162, 2, 63, 1)"/>       <stop offset="53.6%" stop-color="rgba(231, 62, 68, 1)"/>       <stop offset="91.1%" stop-color="rgba(255, 129, 79, 1)"/>     </linearGradient></defs>
<rect data-name="background" width="100%" height="100%" fill="none"/><g data-name="icon" fill="url(#gradient-14)" data="id:7215057" transform="translate(121.2276398678116,94.36561960871558) scale(1.5754503878728998)">
  
 <path d="m93.75 71.781v-57.031c0-3.1719-2.5938-5.7656-5.7656-5.7656h-75.969c-3.1719 0-5.7656 2.5938-5.7656 5.7656v57.031c0 3.1875 2.5938 5.7656 5.7656 5.7656h75.969c3.1719 0 5.7656-2.5781 5.7656-5.7656zm-20.703-43.859c-0.60938-0.60938-0.60938-1.5938 0-2.2031 0.625-0.60938 1.6094-0.60938 2.2188 0 7.5938 7.5938 7.5938 19.969 0 27.562-0.3125 0.3125-0.70312 0.46875-1.1094 0.46875-0.39062 0-0.79688-0.15625-1.1094-0.46875-0.60938-0.60938-0.60938-1.5938 0-2.2031 6.3906-6.3906 6.3906-16.766 0-23.156zm-5.9375 5.9531c-0.60938-0.60938-0.60938-1.6094 0-2.2188s1.5938-0.60938 2.2188 0c2.0938 2.0938 3.2344 4.8906 3.2344 7.8438 0 2.9688-1.1406 5.75-3.2344 7.8438-0.3125 0.3125-0.71875 0.45312-1.1094 0.45312-0.40625 0-0.79688-0.14062-1.1094-0.45312-0.60938-0.60938-0.60938-1.5938 0-2.2031 1.5-1.5156 2.3281-3.5156 2.3281-5.6406s-0.82812-4.125-2.3281-5.625zm-23.75-4.3906c0-0.57812 0.32812-1.1094 0.82812-1.375 0.51562-0.26562 1.125-0.25 1.6094 0.078125l14.891 10.016c0.4375 0.29688 0.6875 0.78125 0.6875 1.2969s-0.25 1-0.6875 1.2969l-14.891 10.016c-0.26562 0.17188-0.5625 0.26562-0.875 0.26562-0.25 0-0.5-0.0625-0.73438-0.1875-0.5-0.26562-0.82812-0.79688-0.82812-1.375zm-12.688 2.1719c0.625-0.60938 1.6094-0.60938 2.2188 0s0.60938 1.6094 0 2.2188c-1.5 1.5-2.3281 3.5-2.3281 5.625s0.82812 4.125 2.3281 5.6406c0.60938 0.60938 0.60938 1.5938 0 2.2031-0.3125 0.3125-0.70312 0.45312-1.1094 0.45312-0.39062 0-0.79688-0.14062-1.1094-0.45312-2.0938-2.0938-3.2344-4.875-3.2344-7.8438 0-2.9531 1.1406-5.75 3.2344-7.8438zm-5.9375-5.9375c0.60938-0.60938 1.5938-0.60938 2.2188 0 0.60938 0.60938 0.60938 1.5938 0 2.2031-6.3906 6.3906-6.3906 16.766 0 23.156 0.60938 0.60938 0.60938 1.5938 0 2.2031-0.3125 0.3125-0.71875 0.46875-1.1094 0.46875-0.40625 0-0.79688-0.15625-1.1094-0.46875-7.5938-7.5938-7.5938-19.969 0-27.562zm60.422 43.953h-9.375v0.73438c0 0.875-0.70312 1.5625-1.5625 1.5625s-1.5625-0.6875-1.5625-1.5625v-0.73438h-57.812c-0.85938 0-1.5625-0.6875-1.5625-1.5625 0-0.85938 0.70312-1.5625 1.5625-1.5625h57.812v-0.73438c0-0.85938 0.70312-1.5625 1.5625-1.5625s1.5625 0.70312 1.5625 1.5625v0.73438h9.375c0.85938 0 1.5625 0.70312 1.5625 1.5625 0 0.875-0.70312 1.5625-1.5625 1.5625z"/>
 <path d="m46.484 32.422v14.156l10.531-7.0781z"/>
 <path d="m39.703 94.141h27.375c0.85938 0 1.5625-0.70312 1.5625-1.5625s-0.70312-1.5625-1.5625-1.5625h-5.4844l-1.9844-10.344h-19.219l-1.9844 10.344h-5.4844c-0.85938 0-1.5625 0.70312-1.5625 1.5625s0.70312 1.5625 1.5625 1.5625z"/>

  </g><g data-name="business_name" fill="white" data="id:346" transform="translate(59.043478997163504,245.3699797138795) scale(0.9448754436720783)"><path d="M2.28,45.2l-0.04-21.72q0.32-3.32,2.84-3.48q1.8-0.04,23.96-0.04q2.4,0,2.4,3.56q0,1.8-2.12,1.8l-8.72,0q-0.84,0-1.34,0.56t-0.5,1.48l0,2.84q0,1.24,1.04,1.24l6.64,0q0.96,0,1.44,0.44t0.48,2.02t-0.46,2.02t-1.5,0.44l-5.96,0q-1,0-1.38,0.48t-0.38,1.52l0,6.88q0,1.4-0.6,2.08t-1.56,0.68l-11.36,0q-1.12,0-1.92-0.74t-0.96-2.06z M37.52,18.76l7.68,0q1.32,0,1.76,0.62t0.56,1.98q0.24,4.8,0.24,13.26t-0.32,11.66q-0.08,0.64-0.64,1.16t-1.98,0.62t-3.34,0.1t-3.44-0.08q-2.6-0.2-2.72-1.8q-0.4-3.48-0.4-12.34t0.32-12.58q0.12-1.36,0.54-1.98t1.74-0.62z M55.12,27.76l7.8,0q1.36,0,1.82,0.6t0.6,2.66t0.14,7.52t-0.24,7.7q-0.12,0.68-0.68,1.2t-1.98,0.62t-3.38,0.1t-3.56-0.1t-2.16-0.62t-0.64-1.2q-0.28-2.6-0.28-7.98t0.16-7.34t0.6-2.56t1.8-0.6z M59.44,18.32q2.64,0,3.98,1.06t1.34,2.9q0,4.32-5.76,4.32q-2.32,0-3.96-1t-1.64-3q0-4.28,6.04-4.28z M81.6,27.64l0.6,0.04q0.12,0,0.26,0.06t0.22,0.08t0.2,0.14t0.18,0.14t0.2,0.18t0.18,0.2q0.36,0.36,0.44,0.52q2.56,2.92,2.68,3.04q4.04-4.2,4.12-4.2q0.2-0.12,0.24-0.12l0.36-0.04l6.92,0q0.48,0,0.66,0.36t-0.18,0.72l-8.28,7.44q4.8,5.2,8.2,9.04q0.72,0.84,0.72,1.56q0,1.12-1.26,1.16t-3.66,0.04l-7.32-0.04q-1.36,0-2.32-0.96l-3.48-3.72q-4.36,4.56-4.44,4.56q-0.2,0.12-0.24,0.12l-0.36,0.04l-6.88,0q-0.48,0-0.6-0.24t-0.12-0.42t0.24-0.42l8.64-7.72l-8.04-8.68q-0.64-0.76-0.64-1.24t0.16-0.76q0.44-0.88,1.56-0.88l11.04,0z M108.5,48.04q-2.98-0.76-4.2-1.52t-1.62-1.08q-1.04-0.84-1.04-2.32q0-1.16,0.28-2.2q0.52-1.96,1.88-1.96q0.44,0.04,2.82,0.92t3.74,0.88q2.04,0,2.04-1.6q0-0.96-1-1.78t-2.42-1.58t-2.86-1.74t-2.44-2.72t-1-4.06q0-3.84,3.76-6.02t9.72-2.18t9.46,1.22t3.5,3.38q0,1.56-0.72,2.74t-1.52,1.18q-0.28,0-1.86-0.62t-2.86-0.62q-2.52,0-2.52,1.96q0,0.96,1.2,1.76t2.9,1.54t3.42,1.66t2.92,2.52t1.2,3.88t-1.46,4.16t-3.86,2.92q-4.76,2.04-11.04,2.04q-3.44,0-6.42-0.76z M136.56,33.44q0-0.64-0.88-0.64q-1.56,0-1.84-1.04q-0.16-0.52-0.16-1.6t0.3-1.54t1.16-0.68t1.56-0.76t2.88-2.38t3.04-2.4t2.14-0.56l2,0q1.4,0,1.88,0.34t0.48,1.06l0,3.8q0,0.84,0.72,0.84l4.28,0q1.04,0,1.5,0.44t0.46,2.02t-0.48,2.02t-1.44,0.44l-4.16,0q-0.56,0-0.72,0.28t-0.16,0.8l0,4.8q0.08,1.36,1.02,2.28t2.66,0.92q0.84,0,2.08-0.46t1.68-0.46q1.08,0,1.08,3.2q0,2.32-1.24,2.8q-1.28,0.44-3.6,0.72t-4.64,0.28t-4.42-0.38t-3.82-1.34q-3.36-1.96-3.36-7.48l0-5.32z M163.88,27.64l7.8,0q1.36,0,1.88,0.58t0.52,1.74l0,1.44q2.24-4.24,7.28-4.24q1.68,0,2.76,1.08t1.08,2.88t-0.96,3.58t-2.68,1.78q-0.8,0-2.24-0.82t-2.32-0.82t-1.82,0.64t-0.94,2.12q0,6.44-0.24,8.52q-0.12,0.68-0.68,1.2t-1.98,0.62t-2.82,0.1t-4.76-0.16q-0.96-0.04-1.52-0.56t-0.64-1.2q-0.28-2.6-0.28-7.96t0.16-7.34t0.6-2.58t1.8-0.6z M196.9,27.56q1.94-0.4,4.8-0.4t5.46,0.7t3.88,1.9q2.24,2.2,2.24,5.16q0,4.64-7.84,4.64q-2.76,0-5.72-0.52q0.12,2.64,0.98,3.72t3.06,1.08t3.64-0.48t2.32-0.98t1.5-0.5t1.06,0.56q0.68,0.72,0.68,1.98t-0.5,1.72t-1.58,0.9q-3.8,1.6-10.8,1.6q-5.8,0-9.54-2.78t-3.74-7.5q0-2.28,0.84-4.18t2.24-3.16t3.24-2.16t3.78-1.3z M202.4,31.72q-2.44,0-2.64,3.96q1.92,0.16,2,0.16q2.64,0,2.64-1.76q0-2.36-2-2.36z M231.36,27q13.04,0,13.16,8.48q0.08,3.6,0.08,6.6t-0.04,4.04t-0.54,1.5t-1.94,0.46l-8.48,0q-1.28,0-1.76-0.46t-0.52-1.38q0-0.04-0.02-0.14t-0.02-0.18q-2.64,2.72-7.2,2.72q-3.16,0-5.38-1.58t-2.22-4.36t1.58-4.44t3.76-2.26t4.68-0.6t4.9,0.48l0-0.16q0-2-0.78-2.88t-2.52-0.88t-2.9,0.3t-1.76,0.62q-1.64,0.96-2.28,0.96t-1.14-0.6t-0.5-1.86t0.46-1.74t1.46-0.96q3.48-1.68,9.92-1.68z M229.48,43.36q1.76,0,1.8-0.68q0.08-1.32,0.08-3.48q0-0.84-1.28-0.84t-2.08,0.62t-0.8,1.82t0.66,1.88t1.62,0.68z M283.64,46.28l0.04-9.76q0-1.2-0.6-1.8t-1.5-0.6t-1.64,0.62t-0.74,1.74l0.04,5.8q0,2.76-0.04,3.8t-0.54,1.5t-1.94,0.46l-7.68,0.08q-1.28,0-1.78-0.46t-0.5-1.38l0.04-9.76q0-1.2-0.6-1.8t-1.5-0.6t-1.64,0.62t-0.74,1.74l0,2.44q0,5.28-0.24,7.2q-0.12,0.68-0.68,1.2t-1.98,0.62t-2.82,0.1t-4.76-0.16q-0.96-0.04-1.52-0.56t-0.64-1.2q-0.28-2.6-0.28-7.96t0.16-7.34t0.6-2.58t1.8-0.6l7.8,0q1.36,0,1.82,0.6t0.58,2.04l0,0.04q3.08-3.2,7.84-3.2q2.92,0,5.08,1.12t3.2,3.28q1.32-2.16,3.62-3.28t4.98-1.12q4.08,0,6.6,2.16t2.58,5.96t0.06,6.8t-0.04,4.04t-0.54,1.5t-1.94,0.46l-7.68,0.08q-1.28,0-1.78-0.46t-0.5-1.38z"/></g></svg>